<svg width="55" viewBox="0 0 55 55" fill="none" xmlns="http://www.w3.org/2000/svg">
<g clip-path="url(#clip0_717_87)">
<path d="M46.0246 24.1931C42.4833 22.0504 38.6263 20.4797 34.5956 19.539C30.643 18.6159 26.5783 18.2661 22.5262 18.5005C14.5487 18.9027 6.8791 21.7073 0.52396 26.5461C7.12975 22.5043 14.8055 20.5596 22.5389 20.9683C30.0238 21.2559 37.2459 23.8047 43.2534 28.2787L46.0246 24.1931Z" fill="white"/>
<path d="M39.5059 30.4665L52.2475 31.3892L46.6807 19.8976L39.5059 30.4665Z" fill="white"/>
<path d="M44.5374 21.2968C42.679 19.9847 40.6626 18.9118 38.536 18.1036C36.4092 17.272 34.2035 16.6586 31.9527 16.2729C30.8242 16.0666 29.6878 15.9645 28.5468 15.8664C27.9777 15.8284 27.4047 15.8425 26.8336 15.8305L25.9933 15.7985L25.1372 15.8614C24.5703 15.9108 23.996 15.9423 23.4284 16.0005L21.7434 16.2897C21.4683 16.3479 21.1812 16.392 20.9102 16.4547L20.0853 16.6858C19.5407 16.8461 19.0001 17.0111 18.4588 17.1847C19.0327 17.1401 19.5956 17.086 20.1475 17.0223L20.9842 16.9274C21.2606 16.9087 21.5405 16.9034 21.821 16.8893L23.4905 16.8085L25.1429 16.8398C27.3588 16.873 29.5683 17.0872 31.7493 17.4803C33.9385 17.8535 36.1025 18.3617 38.2289 19.002C40.3697 19.6583 42.4753 20.4243 44.5374 21.2968V21.2968Z" fill="white"/>
<path d="M1.5371 27.8921C5.26069 26.5539 8.90173 25.3275 12.6496 24.3666C14.5152 23.8812 16.4071 23.5112 18.3078 23.1987C20.233 22.9295 22.172 22.7707 24.1154 22.723C22.1788 22.2863 20.1903 22.1249 18.2087 22.2439C16.2305 22.3784 14.2682 22.6896 12.3455 23.1738C10.4314 23.6775 8.55654 24.3201 6.73585 25.0963C4.91739 25.8596 3.17648 26.7958 1.5371 27.8921Z" fill="white"/>
</g>
<defs>
<clipPath id="clip0_717_87">
<rect width="39.4214" height="37.4325" fill="white" transform="matrix(0.757668 -0.65264 -0.65264 -0.757668 24.8658 54.9752)"/>
</clipPath>
</defs>
</svg>
