<svg width="120" height="60" viewBox="0 0 120 60" fill="none" xmlns="http://www.w3.org/2000/svg">
<g clip-path="url(#clip0_557_17)">
<path d="M60.0002 0C26.8634 0 0.000244141 13.4317 0.000244141 29.9999C0.000244141 46.5683 26.8634 59.9998 60.0002 59.9998C93.1371 59.9998 120 46.5681 120 29.9999C120 13.4315 93.1371 0 60.0002 0ZM60.0002 55.2636C29.479 55.2636 4.73661 43.9527 4.73661 29.9999C4.73661 16.047 29.4792 4.73612 60.0002 4.73612C90.5215 4.73612 115.264 16.047 115.264 29.9999C115.264 43.9527 90.5213 55.2636 60.0002 55.2636ZM52.4336 24.7368V19.9997H69.3603V24.7368H63.2664V40.0001H58.5284V24.7368H52.4336V24.7368ZM89.7919 19.9997V40.0003H85.0558L76.4654 28.0941V40.0003H71.729V19.9997H76.4652L85.0555 31.9059V19.9997H89.7919V19.9997ZM30.0675 40.0003V19.9997H34.8039L40.066 28.0941L45.3282 19.9997H50.0626V40.0003H45.3282V28.6875L41.7357 34.2095H38.3963L34.8039 28.6875V40.0003H30.0675V40.0003Z" fill="#000C1B"/>
</g>
<defs>
<clipPath id="clip0_557_17">
<rect width="120" height="60" fill="white"/>
</clipPath>
</defs>
</svg>
