<svg width="39" height="42" viewBox="0 0 39 42" fill="none" xmlns="http://www.w3.org/2000/svg">
<g clip-path="url(#clip0_717_81)">
<path d="M10.72 37.5255C14.6275 36.1607 18.2953 34.188 21.588 31.6801C24.8174 29.2214 27.6763 26.3108 30.0769 23.038C34.8486 16.6322 37.5723 8.93359 37.8906 0.95229C36.7983 8.61908 33.4079 15.7748 28.1665 21.4757C23.1768 27.0623 16.6115 31.0059 9.33585 32.7868L10.72 37.5255Z" fill="white"/>
<path d="M10.0366 28.5043L1.20876 37.7385L13.6132 40.7675L10.0366 28.5043Z" fill="white"/>
<path d="M13.9 38.2242C16.0953 37.6275 18.2068 36.7566 20.1845 35.6321C22.1803 34.5225 24.0582 33.2129 25.7893 31.7236C26.6672 30.985 27.4698 30.1741 28.2722 29.357C28.6641 28.9425 29.0183 28.4918 29.3913 28.0592L29.9512 27.4319L30.4481 26.7319C30.7711 26.2634 31.1127 25.8007 31.4294 25.3261L32.2798 23.8429C32.4102 23.5939 32.5591 23.3445 32.6833 23.0956L33.0307 22.3124C33.2541 21.7905 33.4713 21.2687 33.6822 20.7409C33.351 21.2116 33.0342 21.68 32.7317 22.1461L32.2719 22.8515C32.1102 23.0765 31.936 23.2956 31.7682 23.5208L30.767 24.8593L29.6902 26.1131C28.2531 27.8001 26.6805 29.3668 24.9882 30.7976C23.306 32.2474 21.5357 33.5918 19.6876 34.8231C17.8179 36.0553 15.8862 37.1904 13.9 38.2242Z" fill="white"/>
<path d="M36.2076 0.875714C34.8672 4.5985 33.4932 8.18647 31.8465 11.6876C31.0323 13.435 30.1123 15.129 29.1424 16.7933C28.1236 18.4488 27.0108 20.0447 25.8096 21.573C27.3799 20.3585 28.771 18.9284 29.9416 17.3251C31.0981 15.7145 32.1081 14.0036 32.9597 12.213C33.7907 10.4167 34.4897 8.56212 35.0511 6.66414C35.6211 4.77615 36.0084 2.83778 36.2076 0.875714Z" fill="white"/>
</g>
<defs>
<clipPath id="clip0_717_81">
<rect width="39.4214" height="37.4325" fill="white" transform="matrix(0.0204464 0.999791 0.999791 -0.0204464 0.469849 1.60669)"/>
</clipPath>
</defs>
</svg>
