<svg width="120" height="121" viewBox="0 0 120 121" fill="none" xmlns="http://www.w3.org/2000/svg">
<path d="M54.9844 57.3961V45.2396H16.6914C15.5626 45.2396 14.2601 44.8922 14.2601 43.8502C14.2601 42.8083 14.5206 41.7663 16.1704 41.0716L46.7354 27.7863C55.3318 24.0525 56.2869 17.2796 56.2869 14.0668C56.2869 5.81775 51.5111 0.260493 41.7859 0.260493H4.36128V12.417H41.6991C43.3489 12.417 44.2172 12.938 44.2172 13.98C44.2172 14.9351 43.4357 16.2376 41.9596 16.8454L11.9157 29.8703C3.84028 33.3435 2.36414 39.2481 2.36414 43.6766C2.36414 51.752 7.22674 57.3961 16.9519 57.3961H54.9844Z" fill="#000C1B"/>
<path d="M89.4697 12.2433H89.817C90.0775 12.2433 90.2512 12.5038 90.5117 13.1117L106.141 57.3961H118.993L101.453 7.90172C99.4554 2.34447 95.2006 0 89.6433 0C84.0861 0 79.8313 2.34447 77.8342 7.90172L60.2941 57.3961H73.1452L88.6882 13.1117C88.9487 12.5038 89.2092 12.2433 89.4697 12.2433Z" fill="#000C1B"/>
<path d="M57.3961 105.677V62.6949H44.6317V104.635C44.6317 106.979 43.6766 108.108 41.8531 108.108C40.7243 108.108 40.2901 107.327 39.856 105.937L29.3493 73.3753C27.0048 66.4287 21.6212 62.2608 15.3693 62.2608C6.68608 62.2608 0 68.0785 0 76.9354V119.83H12.7643V77.9774C12.7643 75.6329 13.7195 74.5041 15.543 74.5041C16.6718 74.5041 17.2796 75.1988 17.5401 76.6749L28.0468 109.237C30.3913 116.184 35.7748 120.351 42.0268 120.351C50.71 120.351 57.3961 114.534 57.3961 105.677Z" fill="#000C1B"/>
<path d="M87.2643 74.8514H96.2948C104.023 74.8514 107.843 79.8877 107.843 91.4364C107.843 102.29 104.023 107.674 96.3816 107.674H87.1774C79.5362 107.674 75.7156 102.29 75.7156 91.4364C75.7156 79.8877 79.5362 74.8514 87.2643 74.8514ZM93.8635 62.6949H89.6956C72.6765 62.6949 63.8196 72.2465 63.5591 91.0891V91.3495C63.5591 110.366 72.2423 119.83 89.6087 119.83H93.9503C111.317 119.83 120 110.366 120 91.3495V91.0891C119.826 72.1596 111.143 62.6949 93.8635 62.6949Z" fill="#000C1B"/>
</svg>
